<?xml version="1.0" standalone="no"?>
 <!DOCTYPE svg PUBLIC "-//W3C//DTD SVG 1.1//EN" 
 "http://www.w3.org/Graphics/SVG/1.1/DTD/svg11.dtd"> 
<svg
  xmlns:svg="http://www.w3.org/2000/svg"
  xmlns="http://www.w3.org/2000/svg"
  xmlns:xlink="http://www.w3.org/1999/xlink"
  version="1.1"
  width="297.0022mm" height="210.0072mm" viewBox="0.0000 0.0000 297.0022 210.0072">
<title>SVG Image created as thermostat-brd.svg date 2024/04/23 22:13:01 </title>
  <desc>Image generated by PCBNEW </desc>
<g style="fill:#000000; fill-opacity:1.0000;stroke:#000000; stroke-opacity:1.0000;
stroke-linecap:round; stroke-linejoin:round;"
 transform="translate(0 0) scale(1 1)">
<path style="fill:#000000; fill-opacity:1.0000; stroke:none;fill-rule:evenodd;"
d="M 170.8570,81.6190
170.8728,81.5103
170.9279,81.3976
171.0166,81.3089
171.1293,81.2538
171.2380,81.2380
172.7620,81.2380
172.8707,81.2538
172.9834,81.3089
173.0721,81.3976
173.1272,81.5103
173.1430,81.6190
173.1430,82.3810
173.1272,82.4897
173.0721,82.6024
172.9834,82.6911
172.8707,82.7462
172.7620,82.7620
171.2380,82.7620
171.1293,82.7462
171.0166,82.6911
170.9279,82.6024
170.8728,82.4897
170.8570,82.3810
Z" /> 
<path style="fill:#000000; fill-opacity:1.0000; stroke:none;fill-rule:evenodd;"
d="M 173.3570,81.6190
173.3728,81.5103
173.4279,81.3976
173.5166,81.3089
173.6293,81.2538
173.7380,81.2380
175.2620,81.2380
175.3707,81.2538
175.4834,81.3089
175.5721,81.3976
175.6272,81.5103
175.6430,81.6190
175.6430,82.3810
175.6272,82.4897
175.5721,82.6024
175.4834,82.6911
175.3707,82.7462
175.2620,82.7620
173.7380,82.7620
173.6293,82.7462
173.5166,82.6911
173.4279,82.6024
173.3728,82.4897
173.3570,82.3810
Z" /> 
<path style="fill:#000000; fill-opacity:1.0000; stroke:none;fill-rule:evenodd;"
d="M 175.8570,81.6190
175.8728,81.5103
175.9279,81.3976
176.0166,81.3089
176.1293,81.2538
176.2380,81.2380
177.7620,81.2380
177.8707,81.2538
177.9834,81.3089
178.0721,81.3976
178.1272,81.5103
178.1430,81.6190
178.1430,82.3810
178.1272,82.4897
178.0721,82.6024
177.9834,82.6911
177.8707,82.7462
177.7620,82.7620
176.2380,82.7620
176.1293,82.7462
176.0166,82.6911
175.9279,82.6024
175.8728,82.4897
175.8570,82.3810
Z" /> 
<path style="fill:#000000; fill-opacity:1.0000; stroke:none;fill-rule:evenodd;"
d="M 178.3570,81.6190
178.3728,81.5103
178.4279,81.3976
178.5166,81.3089
178.6293,81.2538
178.7380,81.2380
180.2620,81.2380
180.3707,81.2538
180.4834,81.3089
180.5721,81.3976
180.6272,81.5103
180.6430,81.6190
180.6430,82.3810
180.6272,82.4897
180.5721,82.6024
180.4834,82.6911
180.3707,82.7462
180.2620,82.7620
178.7380,82.7620
178.6293,82.7462
178.5166,82.6911
178.4279,82.6024
178.3728,82.4897
178.3570,82.3810
Z" /> 
</g>
<g style="fill:#000000; fill-opacity:1.0000; stroke:none;">
<circle cx="129.6500" cy="54.4500" r="1.7500" /> 
</g>
<g style="fill:#000000; fill-opacity:1.0000; stroke:none;">
<circle cx="129.6500" cy="82.9500" r="1.7500" /> 
</g>
<g style="fill:#000000; fill-opacity:1.0000; stroke:none;">
<circle cx="151.5000" cy="54.1000" r="1.7500" /> 
</g>
<g style="fill:#000000; fill-opacity:1.0000; stroke:none;">
<circle cx="151.5000" cy="83.0000" r="1.7500" /> 
</g>
<g style="fill:#000000; fill-opacity:1.0000; stroke:none;">
<circle cx="139.8000" cy="54.7000" r="0.8636" /> 
</g>
<g style="fill:#000000; fill-opacity:1.0000; stroke:none;">
<circle cx="137.3000" cy="54.7000" r="0.8636" /> 
</g>
<g style="fill:#000000; fill-opacity:1.0000; stroke:none;">
<circle cx="134.8000" cy="54.7000" r="0.8636" /> 
</g>
<g style="fill:#000000; fill-opacity:1.0000; stroke:none;">
<circle cx="165.8830" cy="56.3000" r="1.2700" /> 
</g>
<g style="fill:#000000; fill-opacity:1.0000; stroke:none;">
<circle cx="165.8830" cy="69.0000" r="1.0160" /> 
</g>
<g style="fill:#000000; fill-opacity:1.0000; stroke:none;">
<circle cx="186.2030" cy="56.3000" r="1.2700" /> 
</g>
<g style="fill:#000000; fill-opacity:1.0000; stroke:none;">
<circle cx="186.2030" cy="69.0000" r="1.0160" /> 
</g>
<g style="fill:#000000; fill-opacity:1.0000; stroke:none;">
<circle cx="168.5500" cy="69.0000" r="0.8636" /> 
</g>
<g style="fill:#000000; fill-opacity:1.0000; stroke:none;">
<circle cx="171.0500" cy="69.0000" r="0.8636" /> 
</g>
<g style="fill:#000000; fill-opacity:1.0000; stroke:none;">
<circle cx="173.5500" cy="69.0000" r="0.8636" /> 
</g>
<g style="fill:#000000; fill-opacity:1.0000; stroke:none;">
<circle cx="176.0500" cy="69.0000" r="0.8636" /> 
</g>
<g style="fill:#000000; fill-opacity:1.0000; stroke:none;">
<circle cx="178.5500" cy="69.0000" r="0.8636" /> 
</g>
<g style="fill:#000000; fill-opacity:1.0000; stroke:none;">
<circle cx="181.0500" cy="69.0000" r="0.8636" /> 
</g>
<g style="fill:#000000; fill-opacity:1.0000; stroke:none;">
<circle cx="183.5500" cy="69.0000" r="0.8636" /> 
</g>
<g style="fill:#000000; fill-opacity:1.0000; stroke:none;">
<circle cx="112.2200" cy="110.0000" r="1.2700" /> 
</g>
<g style="fill:#000000; fill-opacity:1.0000; stroke:none;">
<circle cx="130.0000" cy="110.0000" r="1.2700" /> 
</g>
<g style="fill:#000000; fill-opacity:1.0000; stroke:none;">
<circle cx="112.3470" cy="122.7000" r="0.8636" /> 
</g>
<g style="fill:#000000; fill-opacity:1.0000; stroke:none;">
<circle cx="114.8470" cy="122.7000" r="0.8636" /> 
</g>
<g style="fill:#000000; fill-opacity:1.0000; stroke:none;">
<circle cx="117.3470" cy="122.7000" r="0.8636" /> 
</g>
<g style="fill:#000000; fill-opacity:1.0000; stroke:none;">
<circle cx="119.8470" cy="122.7000" r="0.8636" /> 
</g>
<g style="fill:#000000; fill-opacity:1.0000; stroke:none;">
<circle cx="122.3470" cy="122.7000" r="0.8636" /> 
</g>
<g style="fill:#000000; fill-opacity:1.0000; stroke:none;">
<circle cx="124.8470" cy="122.7000" r="0.8636" /> 
</g>
<g style="fill:#000000; fill-opacity:1.0000; stroke:none;">
<circle cx="127.3470" cy="122.7000" r="0.8636" /> 
</g>
<g style="fill:#000000; fill-opacity:1.0000; stroke:none;">
<circle cx="129.8470" cy="122.7000" r="0.8636" /> 
</g>
<g style="fill:#000000; fill-opacity:1.0000; stroke:none;">
<circle cx="182.0000" cy="93.0000" r="1.8500" /> 
</g>
<g style="fill:#000000; fill-opacity:1.0000; stroke:none;">
<circle cx="121.2000" cy="93.0000" r="1.8500" /> 
</g>
<g style="fill:#000000; fill-opacity:1.0000; stroke:none;">
<circle cx="148.8000" cy="121.0000" r="0.8636" /> 
</g>
<g style="fill:#000000; fill-opacity:1.0000; stroke:none;">
<circle cx="148.8000" cy="118.4600" r="0.8636" /> 
</g>
<g style="fill:#000000; fill-opacity:1.0000; stroke:none;">
<circle cx="148.8000" cy="115.9200" r="0.8636" /> 
</g>
<g style="fill:#000000; fill-opacity:1.0000; stroke:none;">
<circle cx="148.8000" cy="113.3800" r="0.8636" /> 
</g>
<g style="fill:#000000; fill-opacity:1.0000; stroke:none;">
<circle cx="178.3400" cy="121.0000" r="0.8636" /> 
</g>
<g style="fill:#000000; fill-opacity:1.0000; stroke:none;">
<circle cx="178.3400" cy="118.4600" r="0.8636" /> 
</g>
<g style="fill:#000000; fill-opacity:1.0000; stroke:none;">
<circle cx="178.3400" cy="115.9200" r="0.8636" /> 
</g>
<g style="fill:#000000; fill-opacity:1.0000; stroke:none;">
<circle cx="178.3400" cy="113.3800" r="0.8636" /> 
</g>
<g style="fill:#000000; fill-opacity:1.0000; stroke:none;">
<circle cx="178.3400" cy="110.8400" r="0.8636" /> 
</g>
<g style="fill:#000000; fill-opacity:1.0000; stroke:none;">
<circle cx="196.5500" cy="127.0000" r="1.1000" /> 
</g>
<g style="fill:#000000; fill-opacity:1.0000; stroke:none;">
<circle cx="217.0500" cy="127.0000" r="1.1000" /> 
</g>
<g style="fill:#000000; fill-opacity:1.0000; stroke:none;">
<circle cx="196.5500" cy="70.0000" r="1.1000" /> 
</g>
<g style="fill:#000000; fill-opacity:1.0000; stroke:none;">
<circle cx="217.0500" cy="70.0000" r="1.1000" /> 
</g>
<g style="fill:#000000; fill-opacity:1.0000; stroke:none;">
<circle cx="196.6400" cy="102.0352" r="0.8636" /> 
</g>
<g style="fill:#000000; fill-opacity:1.0000; stroke:none;">
<circle cx="196.6400" cy="107.1152" r="0.8636" /> 
</g>
<g style="fill:#000000; fill-opacity:1.0000; stroke:none;">
<circle cx="216.9600" cy="104.5752" r="0.8636" /> 
</g>
<g style="fill:#000000; fill-opacity:1.0000; stroke:none;">
<circle cx="216.9600" cy="102.0352" r="0.8636" /> 
</g>
<g style="fill:#000000; fill-opacity:1.0000; stroke:none;">
<circle cx="216.9600" cy="99.4952" r="0.8636" /> 
</g>
<g style="fill:#000000; fill-opacity:1.0000; stroke:none;">
<circle cx="216.9600" cy="96.9552" r="0.8636" /> 
</g>
<g style="fill:#000000; fill-opacity:1.0000; stroke:none;">
<circle cx="216.9600" cy="94.4152" r="0.8636" /> 
</g>
<g style="fill:#000000; fill-opacity:1.0000; stroke:none;">
<circle cx="216.9600" cy="91.8752" r="0.8636" /> 
</g>
<g style="fill:#000000; fill-opacity:1.0000; stroke:none;">
<circle cx="216.9600" cy="89.3352" r="0.8636" /> 
</g>
<g style="fill:#000000; fill-opacity:1.0000; stroke:none;">
<circle cx="216.9600" cy="107.1152" r="0.8636" /> 
</g>
<g style="fill:#000000; fill-opacity:1.0000; stroke:none;">
<circle cx="216.9600" cy="86.7952" r="0.8636" /> 
</g>
<g style="fill:#000000; fill-opacity:1.0000; stroke:none;">
<circle cx="216.9600" cy="84.2552" r="0.8636" /> 
</g>
<g style="fill:#000000; fill-opacity:1.0000; stroke:none;">
<circle cx="216.9600" cy="81.7152" r="0.8636" /> 
</g>
<g style="fill:#000000; fill-opacity:1.0000; stroke:none;">
<circle cx="216.9600" cy="79.1752" r="0.8636" /> 
</g>
<g style="fill:#000000; fill-opacity:1.0000; stroke:none;">
<circle cx="216.9600" cy="76.6352" r="0.8636" /> 
</g>
<g style="fill:#000000; fill-opacity:1.0000; stroke:none;">
<circle cx="216.9600" cy="74.0952" r="0.8636" /> 
</g>
<g style="fill:#000000; fill-opacity:1.0000; stroke:none;">
<circle cx="196.6400" cy="74.0952" r="0.8636" /> 
</g>
<g style="fill:#000000; fill-opacity:1.0000; stroke:none;">
<circle cx="196.6400" cy="76.6352" r="0.8636" /> 
</g>
<g style="fill:#000000; fill-opacity:1.0000; stroke:none;">
<circle cx="196.6400" cy="79.1752" r="0.8636" /> 
</g>
<g style="fill:#000000; fill-opacity:1.0000; stroke:none;">
<circle cx="196.6400" cy="81.7152" r="0.8636" /> 
</g>
<g style="fill:#000000; fill-opacity:1.0000; stroke:none;">
<circle cx="196.6400" cy="84.2552" r="0.8636" /> 
</g>
<g style="fill:#000000; fill-opacity:1.0000; stroke:none;">
<circle cx="196.6400" cy="86.7952" r="0.8636" /> 
</g>
<g style="fill:#000000; fill-opacity:1.0000; stroke:none;">
<circle cx="196.6400" cy="89.3352" r="0.8636" /> 
</g>
<g style="fill:#000000; fill-opacity:1.0000; stroke:none;">
<circle cx="196.6400" cy="91.8752" r="0.8636" /> 
</g>
<g style="fill:#000000; fill-opacity:1.0000; stroke:none;">
<circle cx="196.6400" cy="94.4152" r="0.8636" /> 
<path style="fill:#000000; fill-opacity:1.0000; stroke:none;fill-rule:evenodd;"
d="M 197.5036,100.3588
195.7764,100.3588
195.7764,98.6316
197.5036,98.6316
Z" /> 
</g>
<g style="fill:#000000; fill-opacity:1.0000; stroke:none;">
<circle cx="196.6400" cy="96.9552" r="0.8636" /> 
</g>
<g style="fill:#000000; fill-opacity:1.0000; stroke:none;">
<circle cx="196.6400" cy="104.5752" r="0.8636" /> 
<path style="fill:none; 
stroke:#000000; stroke-width:0.3000; stroke-opacity:1; 
stroke-linecap:round; stroke-linejoin:round;fill:none"
d="M 126.0000,86.0000
156.0000,86.0000
156.0000,99.5000
126.0000,99.5000
Z" /> 
<path style="fill:none; 
stroke:#000000; stroke-width:0.3000; stroke-opacity:1; 
stroke-linecap:round; stroke-linejoin:round;fill:none"
d="M 100.0000,50.0000
224.6000,50.0000
224.6000,131.6000
100.0000,131.6000
Z" /> 
</g> 
</svg>
